<svg width="30" height="30" viewBox="0 0 30 30" fill="none" xmlns="http://www.w3.org/2000/svg">
<path d="M11.7333 7.18275C12.2742 6.64188 13.1612 6.64188 13.7021 7.18275L20.5819 14.0842C21.1083 14.6106 21.1227 15.4616 20.6251 16.0025L13.8463 22.8029C13.5723 23.077 13.2189 23.214 12.8583 23.214C12.505 23.214 12.1444 23.077 11.8776 22.8102C11.3367 22.2693 11.3295 21.3895 11.8776 20.8414L17.6396 14.9928L11.7333 9.14429C11.1852 8.61063 11.1852 7.73083 11.7333 7.18275Z" fill="white"/>
<path d="M0 15C0 23.2861 6.71394 30 15 30C23.2861 30 30 23.2861 30 15C30 6.71394 23.2861 0 15 0C6.71394 0 0 6.71394 0 15ZM2.30769 15C2.30769 11.6106 3.6274 8.42308 6.02885 6.02885C8.42308 3.6274 11.6106 2.30769 15 2.30769C18.3894 2.30769 21.5769 3.6274 23.9712 6.02885C26.3726 8.42308 27.6923 11.6106 27.6923 15C27.6923 18.3894 26.3726 21.5769 23.9712 23.9712C21.5769 26.3726 18.3894 27.6923 15 27.6923C11.6106 27.6923 8.42308 26.3726 6.02885 23.9712C3.6274 21.5769 2.30769 18.3894 2.30769 15Z" fill="white"/>
</svg>
