<svg width="28" height="28" viewBox="0 0 28 28" fill="none" xmlns="http://www.w3.org/2000/svg">
<path d="M8 2H20C23.3137 2 26 4.68629 26 8V20C26 23.3137 23.3137 26 20 26H8C4.68629 26 2 23.3137 2 20L2 8C2 4.68629 4.68629 2 8 2L8 2Z" stroke="#1A1A1A" stroke-width="3" stroke-linecap="round" stroke-linejoin="round"/>
<path d="M18.8002 13.244C19.1039 15.2924 18.0598 17.3046 16.2101 18.2356C14.3604 19.1666 12.1222 18.8065 10.658 17.3422C9.19372 15.878 8.83356 13.6398 9.76456 11.7901C10.6956 9.9404 12.7078 8.89628 14.7562 9.20003C16.8477 9.51018 18.49 11.1525 18.8002 13.244V13.244Z" stroke="#1A1A1A" stroke-width="3" stroke-linecap="round" stroke-linejoin="round"/>
</svg>
