<svg width="29" height="24" viewBox="0 0 29 24" fill="none" xmlns="http://www.w3.org/2000/svg">
<path d="M25.8396 5.82941C25.8578 6.08524 25.8578 6.34112 25.8578 6.59695C25.8578 14.3999 19.9188 23.3908 9.06396 23.3908C5.71978 23.3908 2.61321 22.4223 0 20.7411C0.475144 20.7959 0.93195 20.8142 1.42537 20.8142C4.18472 20.8142 6.72486 19.8822 8.75329 18.2924C6.15836 18.2375 3.98374 16.5381 3.23449 14.199C3.6 14.2538 3.96546 14.2903 4.34925 14.2903C4.87918 14.2903 5.40917 14.2172 5.90254 14.0893C3.19798 13.5411 1.16949 11.1655 1.16949 8.29643V8.22336C1.95525 8.66194 2.86903 8.93604 3.83749 8.97255C2.24764 7.91263 1.20606 6.10352 1.20606 4.05681C1.20606 2.96038 1.49839 1.95531 2.01009 1.07814C4.91569 4.65986 9.28322 6.99891 14.1806 7.25479C14.0893 6.81621 14.0344 6.3594 14.0344 5.90254C14.0344 2.64971 16.6659 0 19.937 0C21.6365 0 23.1715 0.712687 24.2497 1.86396C25.5836 1.60813 26.8628 1.11471 27.9958 0.438581C27.5572 1.80917 26.6253 2.96044 25.4009 3.69135C26.5888 3.56349 27.74 3.23449 28.7999 2.77768C27.996 3.94718 26.9908 4.98876 25.8396 5.82941V5.82941Z" fill="#1A1A1A"/>
</svg>
